<svg width="24" height="24" viewBox="0 0 24 24" fill="none" xmlns="http://www.w3.org/2000/svg">
<path fill-rule="evenodd" clip-rule="evenodd" d="M1.5 1.39999C1.22386 1.39999 1 1.62385 1 1.89999C1 2.17613 1.22386 2.39999 1.5 2.39999H3.5C3.77614 2.39999 4 2.62385 4 2.89999V4.89999C4 4.94004 4.00482 4.98038 4.01467 5.02017L6.61406 15.5179L6.61582 15.5247C6.75754 16.0748 7.08235 16.5602 7.53676 16.901C7.9873 17.2389 8.53862 17.4147 9.10133 17.4002L9.11425 17.3998L17.8987 17.4C18.4614 17.4145 19.0127 17.2389 19.4633 16.901C19.9171 16.5606 20.2417 16.076 20.3837 15.5269L20.3842 15.5248L22.9854 5.02017C23.0223 4.87091 22.9885 4.71294 22.8938 4.59184C22.799 4.47075 22.6538 4.39999 22.5 4.39999H5.5C5.22386 4.39999 5 4.17613 5 3.89999V1.89999C5 1.62385 4.77614 1.39999 4.5 1.39999H1.5ZM17 18.4C17.5304 18.4 18.0391 18.6107 18.4142 18.9858C18.7893 19.3609 19 19.8696 19 20.4C19 20.9304 18.7893 21.4391 18.4142 21.8142C18.0392 22.1893 17.5304 22.4 17 22.4C16.4696 22.4 15.9609 22.1893 15.5858 21.8142C15.2107 21.4391 15 20.9304 15 20.4C15 19.8696 15.2107 19.3609 15.5858 18.9858C15.9609 18.6107 16.4696 18.4 17 18.4ZM5.38407 5.59184C5.47884 5.47075 5.62406 5.39999 5.77783 5.39999H21.2222C21.376 5.39999 21.5212 5.47075 21.6159 5.59184C21.7107 5.71294 21.7445 5.87091 21.7075 6.02017L19.4144 15.2809C19.3286 15.6086 19.1343 15.8977 18.8633 16.101C18.5913 16.305 18.2581 16.4105 17.9183 16.4003L17.9158 16.4002L17.9058 16.4H17.9H9.10001L9.0842 16.4002C8.74357 16.411 8.4094 16.3055 8.13676 16.101C7.86568 15.8977 7.67147 15.6086 7.58567 15.2809L7.58398 15.2745L5.29249 6.02017C5.25553 5.87091 5.2893 5.71294 5.38407 5.59184ZM10 18.4C9.46957 18.4 8.96087 18.6107 8.5858 18.9858C8.21072 19.3609 8.00001 19.8696 8.00001 20.4C8.00001 20.9304 8.21072 21.4391 8.5858 21.8142C8.96087 22.1893 9.46957 22.4 10 22.4C10.5304 22.4 11.0392 22.1893 11.4142 21.8142C11.7893 21.4391 12 20.9304 12 20.4C12 19.8696 11.7893 19.3609 11.4142 18.9858C11.0392 18.6107 10.5304 18.4 10 18.4ZM9.2929 19.6929C9.48044 19.5054 9.7348 19.4 10 19.4C10.2652 19.4 10.5196 19.5054 10.7071 19.6929C10.8946 19.8804 11 20.1348 11 20.4C11 20.6652 10.8947 20.9196 10.7071 21.1071C10.5196 21.2946 10.2652 21.4 10 21.4C9.7348 21.4 9.48044 21.2946 9.2929 21.1071C9.10536 20.9196 9.00001 20.6652 9.00001 20.4C9.00001 20.1348 9.10536 19.8804 9.2929 19.6929ZM17 21.4C17.5523 21.4 18 20.9523 18 20.4C18 19.8477 17.5523 19.4 17 19.4C16.4477 19.4 16 19.8477 16 20.4C16 20.9523 16.4477 21.4 17 21.4Z" fill="#8C8D96"/>
</svg>
