<svg width="20" height="20" viewBox="0 0 20 20" fill="none" xmlns="http://www.w3.org/2000/svg">
<path fill-rule="evenodd" clip-rule="evenodd" d="M18.0387 18.6279L17.744 18.3333L13.879 14.4683L13.5878 14.7012C12.3759 15.6706 10.8395 16.25 9.16665 16.25C5.25463 16.25 2.08331 13.0787 2.08331 9.16666C2.08331 5.25464 5.25463 2.08333 9.16665 2.08333C13.0787 2.08333 16.25 5.25464 16.25 9.16666C16.25 10.8395 15.6706 12.376 14.7012 13.5878L14.4682 13.879L18.6232 18.034L18.6255 18.0363C18.7028 18.1124 18.75 18.217 18.75 18.3333C18.75 18.5634 18.5634 18.75 18.3333 18.75C18.2181 18.75 18.1145 18.7038 18.0387 18.6279ZM9.16665 2.91666C5.71487 2.91666 2.91665 5.71488 2.91665 9.16666C2.91665 12.6184 5.71487 15.4167 9.16665 15.4167C12.6184 15.4167 15.4166 12.6184 15.4166 9.16666C15.4166 5.71488 12.6184 2.91666 9.16665 2.91666Z" fill="#8C8D96"/>
</svg>
